<?xml version="1.0" encoding="utf-8"?>
<svg xmlns="http://www.w3.org/2000/svg" xmlns:xlink="http://www.w3.org/1999/xlink" width="620" height="400" viewBox="0 0 2480 1600">
<defs>
  <clipPath id="clip300">
    <rect x="0" y="0" width="2480" height="1600"/>
  </clipPath>
</defs>
<path clip-path="url(#clip300)" d="M0 1600 L2480 1600 L2480 4.44089e-14 L0 4.44089e-14  Z" fill="#ffffff" fill-rule="evenodd" fill-opacity="1"/>
<defs>
  <clipPath id="clip301">
    <rect x="220" y="47" width="2213" height="1332"/>
  </clipPath>
</defs>
<path clip-path="url(#clip300)" d="M220.66 1378.58 L2432.76 1378.58 L2432.76 47.2441 L220.66 47.2441  Z" fill="#ffffff" fill-rule="evenodd" fill-opacity="1"/>
<polyline clip-path="url(#clip300)" style="stroke:#000000; stroke-linecap:round; stroke-linejoin:round; stroke-width:4; stroke-opacity:1; fill:none" points="220.66,1378.58 2432.76,1378.58 "/>
<polyline clip-path="url(#clip300)" style="stroke:#000000; stroke-linecap:round; stroke-linejoin:round; stroke-width:4; stroke-opacity:1; fill:none" points="220.66,47.2441 2432.76,47.2441 "/>
<polyline clip-path="url(#clip300)" style="stroke:#000000; stroke-linecap:round; stroke-linejoin:round; stroke-width:4; stroke-opacity:1; fill:none" points="220.66,1378.58 220.66,1359.69 "/>
<polyline clip-path="url(#clip300)" style="stroke:#000000; stroke-linecap:round; stroke-linejoin:round; stroke-width:4; stroke-opacity:1; fill:none" points="560.983,1378.58 560.983,1359.69 "/>
<polyline clip-path="url(#clip300)" style="stroke:#000000; stroke-linecap:round; stroke-linejoin:round; stroke-width:4; stroke-opacity:1; fill:none" points="901.305,1378.58 901.305,1359.69 "/>
<polyline clip-path="url(#clip300)" style="stroke:#000000; stroke-linecap:round; stroke-linejoin:round; stroke-width:4; stroke-opacity:1; fill:none" points="1241.63,1378.58 1241.63,1359.69 "/>
<polyline clip-path="url(#clip300)" style="stroke:#000000; stroke-linecap:round; stroke-linejoin:round; stroke-width:4; stroke-opacity:1; fill:none" points="1581.95,1378.58 1581.95,1359.69 "/>
<polyline clip-path="url(#clip300)" style="stroke:#000000; stroke-linecap:round; stroke-linejoin:round; stroke-width:4; stroke-opacity:1; fill:none" points="1922.27,1378.58 1922.27,1359.69 "/>
<polyline clip-path="url(#clip300)" style="stroke:#000000; stroke-linecap:round; stroke-linejoin:round; stroke-width:4; stroke-opacity:1; fill:none" points="2262.59,1378.58 2262.59,1359.69 "/>
<polyline clip-path="url(#clip300)" style="stroke:#000000; stroke-linecap:round; stroke-linejoin:round; stroke-width:4; stroke-opacity:1; fill:none" points="220.66,47.2441 220.66,66.1417 "/>
<polyline clip-path="url(#clip300)" style="stroke:#000000; stroke-linecap:round; stroke-linejoin:round; stroke-width:4; stroke-opacity:1; fill:none" points="560.983,47.2441 560.983,66.1417 "/>
<polyline clip-path="url(#clip300)" style="stroke:#000000; stroke-linecap:round; stroke-linejoin:round; stroke-width:4; stroke-opacity:1; fill:none" points="901.305,47.2441 901.305,66.1417 "/>
<polyline clip-path="url(#clip300)" style="stroke:#000000; stroke-linecap:round; stroke-linejoin:round; stroke-width:4; stroke-opacity:1; fill:none" points="1241.63,47.2441 1241.63,66.1417 "/>
<polyline clip-path="url(#clip300)" style="stroke:#000000; stroke-linecap:round; stroke-linejoin:round; stroke-width:4; stroke-opacity:1; fill:none" points="1581.95,47.2441 1581.95,66.1417 "/>
<polyline clip-path="url(#clip300)" style="stroke:#000000; stroke-linecap:round; stroke-linejoin:round; stroke-width:4; stroke-opacity:1; fill:none" points="1922.27,47.2441 1922.27,66.1417 "/>
<polyline clip-path="url(#clip300)" style="stroke:#000000; stroke-linecap:round; stroke-linejoin:round; stroke-width:4; stroke-opacity:1; fill:none" points="2262.59,47.2441 2262.59,66.1417 "/>
<polyline clip-path="url(#clip300)" style="stroke:#000000; stroke-linecap:round; stroke-linejoin:round; stroke-width:4; stroke-opacity:1; fill:none" points="288.725,1378.58 288.725,1369.13 "/>
<polyline clip-path="url(#clip300)" style="stroke:#000000; stroke-linecap:round; stroke-linejoin:round; stroke-width:4; stroke-opacity:1; fill:none" points="356.789,1378.58 356.789,1369.13 "/>
<polyline clip-path="url(#clip300)" style="stroke:#000000; stroke-linecap:round; stroke-linejoin:round; stroke-width:4; stroke-opacity:1; fill:none" points="424.854,1378.58 424.854,1369.13 "/>
<polyline clip-path="url(#clip300)" style="stroke:#000000; stroke-linecap:round; stroke-linejoin:round; stroke-width:4; stroke-opacity:1; fill:none" points="492.918,1378.58 492.918,1369.13 "/>
<polyline clip-path="url(#clip300)" style="stroke:#000000; stroke-linecap:round; stroke-linejoin:round; stroke-width:4; stroke-opacity:1; fill:none" points="629.047,1378.58 629.047,1369.13 "/>
<polyline clip-path="url(#clip300)" style="stroke:#000000; stroke-linecap:round; stroke-linejoin:round; stroke-width:4; stroke-opacity:1; fill:none" points="697.112,1378.58 697.112,1369.13 "/>
<polyline clip-path="url(#clip300)" style="stroke:#000000; stroke-linecap:round; stroke-linejoin:round; stroke-width:4; stroke-opacity:1; fill:none" points="765.176,1378.58 765.176,1369.13 "/>
<polyline clip-path="url(#clip300)" style="stroke:#000000; stroke-linecap:round; stroke-linejoin:round; stroke-width:4; stroke-opacity:1; fill:none" points="833.24,1378.58 833.24,1369.13 "/>
<polyline clip-path="url(#clip300)" style="stroke:#000000; stroke-linecap:round; stroke-linejoin:round; stroke-width:4; stroke-opacity:1; fill:none" points="969.369,1378.58 969.369,1369.13 "/>
<polyline clip-path="url(#clip300)" style="stroke:#000000; stroke-linecap:round; stroke-linejoin:round; stroke-width:4; stroke-opacity:1; fill:none" points="1037.43,1378.58 1037.43,1369.13 "/>
<polyline clip-path="url(#clip300)" style="stroke:#000000; stroke-linecap:round; stroke-linejoin:round; stroke-width:4; stroke-opacity:1; fill:none" points="1105.5,1378.58 1105.5,1369.13 "/>
<polyline clip-path="url(#clip300)" style="stroke:#000000; stroke-linecap:round; stroke-linejoin:round; stroke-width:4; stroke-opacity:1; fill:none" points="1173.56,1378.58 1173.56,1369.13 "/>
<polyline clip-path="url(#clip300)" style="stroke:#000000; stroke-linecap:round; stroke-linejoin:round; stroke-width:4; stroke-opacity:1; fill:none" points="1309.69,1378.58 1309.69,1369.13 "/>
<polyline clip-path="url(#clip300)" style="stroke:#000000; stroke-linecap:round; stroke-linejoin:round; stroke-width:4; stroke-opacity:1; fill:none" points="1377.76,1378.58 1377.76,1369.13 "/>
<polyline clip-path="url(#clip300)" style="stroke:#000000; stroke-linecap:round; stroke-linejoin:round; stroke-width:4; stroke-opacity:1; fill:none" points="1445.82,1378.58 1445.82,1369.13 "/>
<polyline clip-path="url(#clip300)" style="stroke:#000000; stroke-linecap:round; stroke-linejoin:round; stroke-width:4; stroke-opacity:1; fill:none" points="1513.89,1378.58 1513.89,1369.13 "/>
<polyline clip-path="url(#clip300)" style="stroke:#000000; stroke-linecap:round; stroke-linejoin:round; stroke-width:4; stroke-opacity:1; fill:none" points="1650.01,1378.58 1650.01,1369.13 "/>
<polyline clip-path="url(#clip300)" style="stroke:#000000; stroke-linecap:round; stroke-linejoin:round; stroke-width:4; stroke-opacity:1; fill:none" points="1718.08,1378.58 1718.08,1369.13 "/>
<polyline clip-path="url(#clip300)" style="stroke:#000000; stroke-linecap:round; stroke-linejoin:round; stroke-width:4; stroke-opacity:1; fill:none" points="1786.14,1378.58 1786.14,1369.13 "/>
<polyline clip-path="url(#clip300)" style="stroke:#000000; stroke-linecap:round; stroke-linejoin:round; stroke-width:4; stroke-opacity:1; fill:none" points="1854.21,1378.58 1854.21,1369.13 "/>
<polyline clip-path="url(#clip300)" style="stroke:#000000; stroke-linecap:round; stroke-linejoin:round; stroke-width:4; stroke-opacity:1; fill:none" points="1990.34,1378.58 1990.34,1369.13 "/>
<polyline clip-path="url(#clip300)" style="stroke:#000000; stroke-linecap:round; stroke-linejoin:round; stroke-width:4; stroke-opacity:1; fill:none" points="2058.4,1378.58 2058.4,1369.13 "/>
<polyline clip-path="url(#clip300)" style="stroke:#000000; stroke-linecap:round; stroke-linejoin:round; stroke-width:4; stroke-opacity:1; fill:none" points="2126.47,1378.58 2126.47,1369.13 "/>
<polyline clip-path="url(#clip300)" style="stroke:#000000; stroke-linecap:round; stroke-linejoin:round; stroke-width:4; stroke-opacity:1; fill:none" points="2194.53,1378.58 2194.53,1369.13 "/>
<polyline clip-path="url(#clip300)" style="stroke:#000000; stroke-linecap:round; stroke-linejoin:round; stroke-width:4; stroke-opacity:1; fill:none" points="2330.66,1378.58 2330.66,1369.13 "/>
<polyline clip-path="url(#clip300)" style="stroke:#000000; stroke-linecap:round; stroke-linejoin:round; stroke-width:4; stroke-opacity:1; fill:none" points="2398.72,1378.58 2398.72,1369.13 "/>
<polyline clip-path="url(#clip300)" style="stroke:#000000; stroke-linecap:round; stroke-linejoin:round; stroke-width:4; stroke-opacity:1; fill:none" points="288.725,47.2441 288.725,56.6929 "/>
<polyline clip-path="url(#clip300)" style="stroke:#000000; stroke-linecap:round; stroke-linejoin:round; stroke-width:4; stroke-opacity:1; fill:none" points="356.789,47.2441 356.789,56.6929 "/>
<polyline clip-path="url(#clip300)" style="stroke:#000000; stroke-linecap:round; stroke-linejoin:round; stroke-width:4; stroke-opacity:1; fill:none" points="424.854,47.2441 424.854,56.6929 "/>
<polyline clip-path="url(#clip300)" style="stroke:#000000; stroke-linecap:round; stroke-linejoin:round; stroke-width:4; stroke-opacity:1; fill:none" points="492.918,47.2441 492.918,56.6929 "/>
<polyline clip-path="url(#clip300)" style="stroke:#000000; stroke-linecap:round; stroke-linejoin:round; stroke-width:4; stroke-opacity:1; fill:none" points="629.047,47.2441 629.047,56.6929 "/>
<polyline clip-path="url(#clip300)" style="stroke:#000000; stroke-linecap:round; stroke-linejoin:round; stroke-width:4; stroke-opacity:1; fill:none" points="697.112,47.2441 697.112,56.6929 "/>
<polyline clip-path="url(#clip300)" style="stroke:#000000; stroke-linecap:round; stroke-linejoin:round; stroke-width:4; stroke-opacity:1; fill:none" points="765.176,47.2441 765.176,56.6929 "/>
<polyline clip-path="url(#clip300)" style="stroke:#000000; stroke-linecap:round; stroke-linejoin:round; stroke-width:4; stroke-opacity:1; fill:none" points="833.24,47.2441 833.24,56.6929 "/>
<polyline clip-path="url(#clip300)" style="stroke:#000000; stroke-linecap:round; stroke-linejoin:round; stroke-width:4; stroke-opacity:1; fill:none" points="969.369,47.2441 969.369,56.6929 "/>
<polyline clip-path="url(#clip300)" style="stroke:#000000; stroke-linecap:round; stroke-linejoin:round; stroke-width:4; stroke-opacity:1; fill:none" points="1037.43,47.2441 1037.43,56.6929 "/>
<polyline clip-path="url(#clip300)" style="stroke:#000000; stroke-linecap:round; stroke-linejoin:round; stroke-width:4; stroke-opacity:1; fill:none" points="1105.5,47.2441 1105.5,56.6929 "/>
<polyline clip-path="url(#clip300)" style="stroke:#000000; stroke-linecap:round; stroke-linejoin:round; stroke-width:4; stroke-opacity:1; fill:none" points="1173.56,47.2441 1173.56,56.6929 "/>
<polyline clip-path="url(#clip300)" style="stroke:#000000; stroke-linecap:round; stroke-linejoin:round; stroke-width:4; stroke-opacity:1; fill:none" points="1309.69,47.2441 1309.69,56.6929 "/>
<polyline clip-path="url(#clip300)" style="stroke:#000000; stroke-linecap:round; stroke-linejoin:round; stroke-width:4; stroke-opacity:1; fill:none" points="1377.76,47.2441 1377.76,56.6929 "/>
<polyline clip-path="url(#clip300)" style="stroke:#000000; stroke-linecap:round; stroke-linejoin:round; stroke-width:4; stroke-opacity:1; fill:none" points="1445.82,47.2441 1445.82,56.6929 "/>
<polyline clip-path="url(#clip300)" style="stroke:#000000; stroke-linecap:round; stroke-linejoin:round; stroke-width:4; stroke-opacity:1; fill:none" points="1513.89,47.2441 1513.89,56.6929 "/>
<polyline clip-path="url(#clip300)" style="stroke:#000000; stroke-linecap:round; stroke-linejoin:round; stroke-width:4; stroke-opacity:1; fill:none" points="1650.01,47.2441 1650.01,56.6929 "/>
<polyline clip-path="url(#clip300)" style="stroke:#000000; stroke-linecap:round; stroke-linejoin:round; stroke-width:4; stroke-opacity:1; fill:none" points="1718.08,47.2441 1718.08,56.6929 "/>
<polyline clip-path="url(#clip300)" style="stroke:#000000; stroke-linecap:round; stroke-linejoin:round; stroke-width:4; stroke-opacity:1; fill:none" points="1786.14,47.2441 1786.14,56.6929 "/>
<polyline clip-path="url(#clip300)" style="stroke:#000000; stroke-linecap:round; stroke-linejoin:round; stroke-width:4; stroke-opacity:1; fill:none" points="1854.21,47.2441 1854.21,56.6929 "/>
<polyline clip-path="url(#clip300)" style="stroke:#000000; stroke-linecap:round; stroke-linejoin:round; stroke-width:4; stroke-opacity:1; fill:none" points="1990.34,47.2441 1990.34,56.6929 "/>
<polyline clip-path="url(#clip300)" style="stroke:#000000; stroke-linecap:round; stroke-linejoin:round; stroke-width:4; stroke-opacity:1; fill:none" points="2058.4,47.2441 2058.4,56.6929 "/>
<polyline clip-path="url(#clip300)" style="stroke:#000000; stroke-linecap:round; stroke-linejoin:round; stroke-width:4; stroke-opacity:1; fill:none" points="2126.47,47.2441 2126.47,56.6929 "/>
<polyline clip-path="url(#clip300)" style="stroke:#000000; stroke-linecap:round; stroke-linejoin:round; stroke-width:4; stroke-opacity:1; fill:none" points="2194.53,47.2441 2194.53,56.6929 "/>
<polyline clip-path="url(#clip300)" style="stroke:#000000; stroke-linecap:round; stroke-linejoin:round; stroke-width:4; stroke-opacity:1; fill:none" points="2330.66,47.2441 2330.66,56.6929 "/>
<polyline clip-path="url(#clip300)" style="stroke:#000000; stroke-linecap:round; stroke-linejoin:round; stroke-width:4; stroke-opacity:1; fill:none" points="2398.72,47.2441 2398.72,56.6929 "/>
<path clip-path="url(#clip300)" d="M187.57 1437.69 L195.209 1437.69 L195.209 1411.32 L186.899 1412.99 L186.899 1408.73 L195.163 1407.06 L199.838 1407.06 L199.838 1437.69 L207.477 1437.69 L207.477 1441.62 L187.57 1441.62 L187.57 1437.69 Z" fill="#000000" fill-rule="nonzero" fill-opacity="1" /><path clip-path="url(#clip300)" d="M216.922 1435.74 L221.806 1435.74 L221.806 1441.62 L216.922 1441.62 L216.922 1435.74 Z" fill="#000000" fill-rule="nonzero" fill-opacity="1" /><path clip-path="url(#clip300)" d="M244.838 1411.14 L233.033 1429.59 L244.838 1429.59 L244.838 1411.14 M243.611 1407.06 L249.491 1407.06 L249.491 1429.59 L254.422 1429.59 L254.422 1433.48 L249.491 1433.48 L249.491 1441.62 L244.838 1441.62 L244.838 1433.48 L229.236 1433.48 L229.236 1428.96 L243.611 1407.06 Z" fill="#000000" fill-rule="nonzero" fill-opacity="1" /><path clip-path="url(#clip300)" d="M528.633 1437.69 L536.272 1437.69 L536.272 1411.32 L527.962 1412.99 L527.962 1408.73 L536.226 1407.06 L540.902 1407.06 L540.902 1437.69 L548.54 1437.69 L548.54 1441.62 L528.633 1441.62 L528.633 1437.69 Z" fill="#000000" fill-rule="nonzero" fill-opacity="1" /><path clip-path="url(#clip300)" d="M557.985 1435.74 L562.869 1435.74 L562.869 1441.62 L557.985 1441.62 L557.985 1435.74 Z" fill="#000000" fill-rule="nonzero" fill-opacity="1" /><path clip-path="url(#clip300)" d="M573.101 1407.06 L591.457 1407.06 L591.457 1411 L577.383 1411 L577.383 1419.47 Q578.401 1419.12 579.42 1418.96 Q580.438 1418.78 581.457 1418.78 Q587.244 1418.78 590.624 1421.95 Q594.003 1425.12 594.003 1430.54 Q594.003 1436.11 590.531 1439.22 Q587.059 1442.29 580.739 1442.29 Q578.563 1442.29 576.295 1441.92 Q574.05 1441.55 571.642 1440.81 L571.642 1436.11 Q573.726 1437.25 575.948 1437.8 Q578.17 1438.36 580.647 1438.36 Q584.651 1438.36 586.989 1436.25 Q589.327 1434.15 589.327 1430.54 Q589.327 1426.92 586.989 1424.82 Q584.651 1422.71 580.647 1422.71 Q578.772 1422.71 576.897 1423.13 Q575.045 1423.54 573.101 1424.42 L573.101 1407.06 Z" fill="#000000" fill-rule="nonzero" fill-opacity="1" /><path clip-path="url(#clip300)" d="M868.377 1437.69 L876.016 1437.69 L876.016 1411.32 L867.706 1412.99 L867.706 1408.73 L875.969 1407.06 L880.645 1407.06 L880.645 1437.69 L888.284 1437.69 L888.284 1441.62 L868.377 1441.62 L868.377 1437.69 Z" fill="#000000" fill-rule="nonzero" fill-opacity="1" /><path clip-path="url(#clip300)" d="M897.729 1435.74 L902.613 1435.74 L902.613 1441.62 L897.729 1441.62 L897.729 1435.74 Z" fill="#000000" fill-rule="nonzero" fill-opacity="1" /><path clip-path="url(#clip300)" d="M923.377 1422.48 Q920.228 1422.48 918.377 1424.63 Q916.548 1426.79 916.548 1430.54 Q916.548 1434.26 918.377 1436.44 Q920.228 1438.59 923.377 1438.59 Q926.525 1438.59 928.353 1436.44 Q930.205 1434.26 930.205 1430.54 Q930.205 1426.79 928.353 1424.63 Q926.525 1422.48 923.377 1422.48 M932.659 1407.83 L932.659 1412.09 Q930.9 1411.25 929.094 1410.81 Q927.312 1410.37 925.553 1410.37 Q920.923 1410.37 918.469 1413.5 Q916.039 1416.62 915.691 1422.94 Q917.057 1420.93 919.117 1419.86 Q921.178 1418.78 923.654 1418.78 Q928.863 1418.78 931.872 1421.95 Q934.904 1425.1 934.904 1430.54 Q934.904 1435.86 931.756 1439.08 Q928.608 1442.29 923.377 1442.29 Q917.381 1442.29 914.21 1437.71 Q911.039 1433.11 911.039 1424.38 Q911.039 1416.18 914.928 1411.32 Q918.816 1406.44 925.367 1406.44 Q927.127 1406.44 928.909 1406.79 Q930.715 1407.13 932.659 1407.83 Z" fill="#000000" fill-rule="nonzero" fill-opacity="1" /><path clip-path="url(#clip300)" d="M1209.23 1437.69 L1216.87 1437.69 L1216.87 1411.32 L1208.56 1412.99 L1208.56 1408.73 L1216.82 1407.06 L1221.5 1407.06 L1221.5 1437.69 L1229.14 1437.69 L1229.14 1441.62 L1209.23 1441.62 L1209.23 1437.69 Z" fill="#000000" fill-rule="nonzero" fill-opacity="1" /><path clip-path="url(#clip300)" d="M1238.58 1435.74 L1243.47 1435.74 L1243.47 1441.62 L1238.58 1441.62 L1238.58 1435.74 Z" fill="#000000" fill-rule="nonzero" fill-opacity="1" /><path clip-path="url(#clip300)" d="M1252.47 1407.06 L1274.69 1407.06 L1274.69 1409.05 L1262.15 1441.62 L1257.26 1441.62 L1269.07 1411 L1252.47 1411 L1252.47 1407.06 Z" fill="#000000" fill-rule="nonzero" fill-opacity="1" /><path clip-path="url(#clip300)" d="M1549.15 1437.69 L1556.79 1437.69 L1556.79 1411.32 L1548.48 1412.99 L1548.48 1408.73 L1556.74 1407.06 L1561.42 1407.06 L1561.42 1437.69 L1569.06 1437.69 L1569.06 1441.62 L1549.15 1441.62 L1549.15 1437.69 Z" fill="#000000" fill-rule="nonzero" fill-opacity="1" /><path clip-path="url(#clip300)" d="M1578.5 1435.74 L1583.39 1435.74 L1583.39 1441.62 L1578.5 1441.62 L1578.5 1435.74 Z" fill="#000000" fill-rule="nonzero" fill-opacity="1" /><path clip-path="url(#clip300)" d="M1603.57 1425.21 Q1600.24 1425.21 1598.32 1426.99 Q1596.42 1428.78 1596.42 1431.9 Q1596.42 1435.03 1598.32 1436.81 Q1600.24 1438.59 1603.57 1438.59 Q1606.9 1438.59 1608.82 1436.81 Q1610.75 1435 1610.75 1431.9 Q1610.75 1428.78 1608.82 1426.99 Q1606.93 1425.21 1603.57 1425.21 M1598.89 1423.22 Q1595.88 1422.48 1594.2 1420.42 Q1592.53 1418.36 1592.53 1415.4 Q1592.53 1411.25 1595.47 1408.85 Q1598.43 1406.44 1603.57 1406.44 Q1608.73 1406.44 1611.67 1408.85 Q1614.61 1411.25 1614.61 1415.4 Q1614.61 1418.36 1612.92 1420.42 Q1611.26 1422.48 1608.27 1423.22 Q1611.65 1424.01 1613.52 1426.3 Q1615.42 1428.59 1615.42 1431.9 Q1615.42 1436.92 1612.34 1439.61 Q1609.29 1442.29 1603.57 1442.29 Q1597.85 1442.29 1594.77 1439.61 Q1591.72 1436.92 1591.72 1431.9 Q1591.72 1428.59 1593.62 1426.3 Q1595.51 1424.01 1598.89 1423.22 M1597.18 1415.84 Q1597.18 1418.52 1598.85 1420.03 Q1600.54 1421.53 1603.57 1421.53 Q1606.58 1421.53 1608.27 1420.03 Q1609.98 1418.52 1609.98 1415.84 Q1609.98 1413.15 1608.27 1411.65 Q1606.58 1410.14 1603.57 1410.14 Q1600.54 1410.14 1598.85 1411.65 Q1597.18 1413.15 1597.18 1415.84 Z" fill="#000000" fill-rule="nonzero" fill-opacity="1" /><path clip-path="url(#clip300)" d="M1889.52 1437.69 L1897.16 1437.69 L1897.16 1411.32 L1888.85 1412.99 L1888.85 1408.73 L1897.11 1407.06 L1901.79 1407.06 L1901.79 1437.69 L1909.43 1437.69 L1909.43 1441.62 L1889.52 1441.62 L1889.52 1437.69 Z" fill="#000000" fill-rule="nonzero" fill-opacity="1" /><path clip-path="url(#clip300)" d="M1918.87 1435.74 L1923.75 1435.74 L1923.75 1441.62 L1918.87 1441.62 L1918.87 1435.74 Z" fill="#000000" fill-rule="nonzero" fill-opacity="1" /><path clip-path="url(#clip300)" d="M1934.08 1440.91 L1934.08 1436.65 Q1935.84 1437.48 1937.64 1437.92 Q1939.45 1438.36 1941.18 1438.36 Q1945.81 1438.36 1948.24 1435.26 Q1950.7 1432.13 1951.05 1425.79 Q1949.7 1427.78 1947.64 1428.85 Q1945.58 1429.91 1943.08 1429.91 Q1937.9 1429.91 1934.86 1426.79 Q1931.86 1423.64 1931.86 1418.2 Q1931.86 1412.87 1935 1409.66 Q1938.15 1406.44 1943.38 1406.44 Q1949.38 1406.44 1952.53 1411.04 Q1955.7 1415.63 1955.7 1424.38 Q1955.7 1432.55 1951.81 1437.43 Q1947.94 1442.29 1941.39 1442.29 Q1939.63 1442.29 1937.83 1441.95 Q1936.02 1441.6 1934.08 1440.91 M1943.38 1426.25 Q1946.53 1426.25 1948.36 1424.1 Q1950.21 1421.95 1950.21 1418.2 Q1950.21 1414.47 1948.36 1412.32 Q1946.53 1410.14 1943.38 1410.14 Q1940.24 1410.14 1938.38 1412.32 Q1936.55 1414.47 1936.55 1418.2 Q1936.55 1421.95 1938.38 1424.1 Q1940.24 1426.25 1943.38 1426.25 Z" fill="#000000" fill-rule="nonzero" fill-opacity="1" /><path clip-path="url(#clip300)" d="M2233.83 1437.69 L2250.15 1437.69 L2250.15 1441.62 L2228.21 1441.62 L2228.21 1437.69 Q2230.87 1434.93 2235.45 1430.3 Q2240.06 1425.65 2241.24 1424.31 Q2243.49 1421.79 2244.37 1420.05 Q2245.27 1418.29 2245.27 1416.6 Q2245.27 1413.85 2243.32 1412.11 Q2241.4 1410.37 2238.3 1410.37 Q2236.1 1410.37 2233.65 1411.14 Q2231.22 1411.9 2228.44 1413.45 L2228.44 1408.73 Q2231.26 1407.6 2233.72 1407.02 Q2236.17 1406.44 2238.21 1406.44 Q2243.58 1406.44 2246.77 1409.12 Q2249.97 1411.81 2249.97 1416.3 Q2249.97 1418.43 2249.16 1420.35 Q2248.37 1422.25 2246.26 1424.84 Q2245.69 1425.51 2242.58 1428.73 Q2239.48 1431.92 2233.83 1437.69 Z" fill="#000000" fill-rule="nonzero" fill-opacity="1" /><path clip-path="url(#clip300)" d="M2259.97 1435.74 L2264.85 1435.74 L2264.85 1441.62 L2259.97 1441.62 L2259.97 1435.74 Z" fill="#000000" fill-rule="nonzero" fill-opacity="1" /><path clip-path="url(#clip300)" d="M2285.04 1410.14 Q2281.43 1410.14 2279.6 1413.71 Q2277.79 1417.25 2277.79 1424.38 Q2277.79 1431.48 2279.6 1435.05 Q2281.43 1438.59 2285.04 1438.59 Q2288.67 1438.59 2290.48 1435.05 Q2292.31 1431.48 2292.31 1424.38 Q2292.31 1417.25 2290.48 1413.71 Q2288.67 1410.14 2285.04 1410.14 M2285.04 1406.44 Q2290.85 1406.44 2293.9 1411.04 Q2296.98 1415.63 2296.98 1424.38 Q2296.98 1433.11 2293.9 1437.71 Q2290.85 1442.29 2285.04 1442.29 Q2279.23 1442.29 2276.15 1437.71 Q2273.09 1433.11 2273.09 1424.38 Q2273.09 1415.63 2276.15 1411.04 Q2279.23 1406.44 2285.04 1406.44 Z" fill="#000000" fill-rule="nonzero" fill-opacity="1" /><path clip-path="url(#clip300)" d="M1918.98 1495.84 Q1921.18 1491.9 1924.23 1490.02 Q1927.29 1488.14 1931.42 1488.14 Q1936.99 1488.14 1940.02 1492.06 Q1943.04 1495.94 1943.04 1503.13 L1943.04 1524.65 L1937.15 1524.65 L1937.15 1503.32 Q1937.15 1498.2 1935.34 1495.72 Q1933.52 1493.23 1929.8 1493.23 Q1925.25 1493.23 1922.61 1496.26 Q1919.97 1499.28 1919.97 1504.5 L1919.97 1524.65 L1914.08 1524.65 L1914.08 1503.32 Q1914.08 1498.17 1912.26 1495.72 Q1910.45 1493.23 1906.66 1493.23 Q1902.17 1493.23 1899.53 1496.29 Q1896.89 1499.31 1896.89 1504.5 L1896.89 1524.65 L1891 1524.65 L1891 1489 L1896.89 1489 L1896.89 1494.54 Q1898.9 1491.26 1901.7 1489.7 Q1904.5 1488.14 1908.35 1488.14 Q1912.23 1488.14 1914.94 1490.11 Q1917.67 1492.09 1918.98 1495.84 Z" fill="#000000" fill-rule="nonzero" fill-opacity="1" /><path clip-path="url(#clip300)" d="M1968.79 1475.19 Q1964.53 1482.51 1962.46 1489.67 Q1960.39 1496.83 1960.39 1504.18 Q1960.39 1511.53 1962.46 1518.76 Q1964.56 1525.95 1968.79 1533.24 L1963.7 1533.24 Q1958.92 1525.76 1956.54 1518.54 Q1954.18 1511.31 1954.18 1504.18 Q1954.18 1497.08 1956.54 1489.89 Q1958.89 1482.7 1963.7 1475.19 L1968.79 1475.19 Z" fill="#000000" fill-rule="nonzero" fill-opacity="1" /><path clip-path="url(#clip300)" d="M1985.82 1519.3 L1985.82 1538.21 L1979.93 1538.21 L1979.93 1489 L1985.82 1489 L1985.82 1494.41 Q1987.67 1491.23 1990.47 1489.7 Q1993.3 1488.14 1997.21 1488.14 Q2003.71 1488.14 2007.75 1493.3 Q2011.82 1498.45 2011.82 1506.86 Q2011.82 1515.26 2007.75 1520.41 Q2003.71 1525.57 1997.21 1525.57 Q1993.3 1525.57 1990.47 1524.04 Q1987.67 1522.48 1985.82 1519.3 M2005.74 1506.86 Q2005.74 1500.39 2003.07 1496.73 Q2000.43 1493.04 1995.78 1493.04 Q1991.13 1493.04 1988.46 1496.73 Q1985.82 1500.39 1985.82 1506.86 Q1985.82 1513.32 1988.46 1517.01 Q1991.13 1520.67 1995.78 1520.67 Q2000.43 1520.67 2003.07 1517.01 Q2005.74 1513.32 2005.74 1506.86 Z" fill="#000000" fill-rule="nonzero" fill-opacity="1" /><path clip-path="url(#clip300)" d="M2042.51 1477.13 L2048.93 1477.13 L2048.93 1497.21 L2070.26 1477.13 L2078.54 1477.13 L2054.95 1499.28 L2080.22 1524.65 L2071.76 1524.65 L2048.93 1501.76 L2048.93 1524.65 L2042.51 1524.65 L2042.51 1477.13 Z" fill="#000000" fill-rule="nonzero" fill-opacity="1" /><path clip-path="url(#clip300)" d="M2075.19 1504.18 L2092.35 1504.18 L2092.35 1509.4 L2075.19 1509.4 L2075.19 1504.18 Z" fill="#000000" fill-rule="nonzero" fill-opacity="1" /><path clip-path="url(#clip300)" d="M2100.75 1475.19 L2105.84 1475.19 Q2110.62 1482.7 2112.97 1489.89 Q2115.36 1497.08 2115.36 1504.18 Q2115.36 1511.31 2112.97 1518.54 Q2110.62 1525.76 2105.84 1533.24 L2100.75 1533.24 Q2104.99 1525.95 2107.05 1518.76 Q2109.15 1511.53 2109.15 1504.18 Q2109.15 1496.83 2107.05 1489.67 Q2104.99 1482.51 2100.75 1475.19 Z" fill="#000000" fill-rule="nonzero" fill-opacity="1" /><path clip-path="url(#clip300)" d="M2147.29 1475.12 L2160.78 1475.12 L2160.78 1479.67 L2153.14 1479.67 L2153.14 1528.69 L2160.78 1528.69 L2160.78 1533.24 L2147.29 1533.24 L2147.29 1475.12 Z" fill="#000000" fill-rule="nonzero" fill-opacity="1" /><path clip-path="url(#clip300)" d="M2205.91 1517.87 L2205.91 1505.1 L2195.41 1505.1 L2195.41 1499.82 L2212.28 1499.82 L2212.28 1520.22 Q2208.56 1522.87 2204.07 1524.23 Q2199.58 1525.57 2194.49 1525.57 Q2183.35 1525.57 2177.04 1519.08 Q2170.77 1512.55 2170.77 1500.94 Q2170.77 1489.29 2177.04 1482.79 Q2183.35 1476.27 2194.49 1476.27 Q2199.13 1476.27 2203.3 1477.41 Q2207.5 1478.56 2211.04 1480.79 L2211.04 1487.63 Q2207.47 1484.61 2203.46 1483.08 Q2199.45 1481.55 2195.03 1481.55 Q2186.31 1481.55 2181.91 1486.42 Q2177.55 1491.29 2177.55 1500.94 Q2177.55 1510.55 2181.91 1515.42 Q2186.31 1520.29 2195.03 1520.29 Q2198.43 1520.29 2201.11 1519.71 Q2203.78 1519.11 2205.91 1517.87 Z" fill="#000000" fill-rule="nonzero" fill-opacity="1" /><path clip-path="url(#clip300)" d="M2254.26 1505.36 L2254.26 1508.22 L2227.33 1508.22 Q2227.72 1514.27 2230.96 1517.45 Q2234.24 1520.61 2240.07 1520.61 Q2243.44 1520.61 2246.59 1519.78 Q2249.77 1518.95 2252.89 1517.3 L2252.89 1522.83 Q2249.74 1524.17 2246.43 1524.87 Q2243.12 1525.57 2239.72 1525.57 Q2231.19 1525.57 2226.19 1520.61 Q2221.22 1515.64 2221.22 1507.17 Q2221.22 1498.42 2225.93 1493.3 Q2230.68 1488.14 2238.7 1488.14 Q2245.89 1488.14 2250.06 1492.79 Q2254.26 1497.4 2254.26 1505.36 M2248.4 1503.64 Q2248.34 1498.83 2245.7 1495.97 Q2243.09 1493.11 2238.76 1493.11 Q2233.86 1493.11 2230.9 1495.87 Q2227.97 1498.64 2227.52 1503.67 L2248.4 1503.64 Z" fill="#000000" fill-rule="nonzero" fill-opacity="1" /><path clip-path="url(#clip300)" d="M2276.38 1524.65 L2258.24 1477.13 L2264.96 1477.13 L2280.01 1517.14 L2295.1 1477.13 L2301.78 1477.13 L2283.67 1524.65 L2276.38 1524.65 Z" fill="#000000" fill-rule="nonzero" fill-opacity="1" /><path clip-path="url(#clip300)" d="M2322.15 1475.12 L2322.15 1533.24 L2308.66 1533.24 L2308.66 1528.69 L2316.26 1528.69 L2316.26 1479.67 L2308.66 1479.67 L2308.66 1475.12 L2322.15 1475.12 Z" fill="#000000" fill-rule="nonzero" fill-opacity="1" /><polyline clip-path="url(#clip300)" style="stroke:#000000; stroke-linecap:round; stroke-linejoin:round; stroke-width:4; stroke-opacity:1; fill:none" points="220.66,1378.58 220.66,47.2441 "/>
<polyline clip-path="url(#clip300)" style="stroke:#000000; stroke-linecap:round; stroke-linejoin:round; stroke-width:4; stroke-opacity:1; fill:none" points="2432.76,1378.58 2432.76,47.2441 "/>
<polyline clip-path="url(#clip300)" style="stroke:#000000; stroke-linecap:round; stroke-linejoin:round; stroke-width:4; stroke-opacity:1; fill:none" points="220.66,1378.58 239.558,1378.58 "/>
<polyline clip-path="url(#clip300)" style="stroke:#000000; stroke-linecap:round; stroke-linejoin:round; stroke-width:4; stroke-opacity:1; fill:none" points="220.66,972.877 239.558,972.877 "/>
<polyline clip-path="url(#clip300)" style="stroke:#000000; stroke-linecap:round; stroke-linejoin:round; stroke-width:4; stroke-opacity:1; fill:none" points="220.66,567.17 239.558,567.17 "/>
<polyline clip-path="url(#clip300)" style="stroke:#000000; stroke-linecap:round; stroke-linejoin:round; stroke-width:4; stroke-opacity:1; fill:none" points="220.66,161.463 239.558,161.463 "/>
<polyline clip-path="url(#clip300)" style="stroke:#000000; stroke-linecap:round; stroke-linejoin:round; stroke-width:4; stroke-opacity:1; fill:none" points="2432.76,1378.58 2413.86,1378.58 "/>
<polyline clip-path="url(#clip300)" style="stroke:#000000; stroke-linecap:round; stroke-linejoin:round; stroke-width:4; stroke-opacity:1; fill:none" points="2432.76,972.877 2413.86,972.877 "/>
<polyline clip-path="url(#clip300)" style="stroke:#000000; stroke-linecap:round; stroke-linejoin:round; stroke-width:4; stroke-opacity:1; fill:none" points="2432.76,567.17 2413.86,567.17 "/>
<polyline clip-path="url(#clip300)" style="stroke:#000000; stroke-linecap:round; stroke-linejoin:round; stroke-width:4; stroke-opacity:1; fill:none" points="2432.76,161.463 2413.86,161.463 "/>
<polyline clip-path="url(#clip300)" style="stroke:#000000; stroke-linecap:round; stroke-linejoin:round; stroke-width:4; stroke-opacity:1; fill:none" points="220.66,1297.44 230.109,1297.44 "/>
<polyline clip-path="url(#clip300)" style="stroke:#000000; stroke-linecap:round; stroke-linejoin:round; stroke-width:4; stroke-opacity:1; fill:none" points="220.66,1216.3 230.109,1216.3 "/>
<polyline clip-path="url(#clip300)" style="stroke:#000000; stroke-linecap:round; stroke-linejoin:round; stroke-width:4; stroke-opacity:1; fill:none" points="220.66,1135.16 230.109,1135.16 "/>
<polyline clip-path="url(#clip300)" style="stroke:#000000; stroke-linecap:round; stroke-linejoin:round; stroke-width:4; stroke-opacity:1; fill:none" points="220.66,1054.02 230.109,1054.02 "/>
<polyline clip-path="url(#clip300)" style="stroke:#000000; stroke-linecap:round; stroke-linejoin:round; stroke-width:4; stroke-opacity:1; fill:none" points="220.66,891.735 230.109,891.735 "/>
<polyline clip-path="url(#clip300)" style="stroke:#000000; stroke-linecap:round; stroke-linejoin:round; stroke-width:4; stroke-opacity:1; fill:none" points="220.66,810.594 230.109,810.594 "/>
<polyline clip-path="url(#clip300)" style="stroke:#000000; stroke-linecap:round; stroke-linejoin:round; stroke-width:4; stroke-opacity:1; fill:none" points="220.66,729.453 230.109,729.453 "/>
<polyline clip-path="url(#clip300)" style="stroke:#000000; stroke-linecap:round; stroke-linejoin:round; stroke-width:4; stroke-opacity:1; fill:none" points="220.66,648.311 230.109,648.311 "/>
<polyline clip-path="url(#clip300)" style="stroke:#000000; stroke-linecap:round; stroke-linejoin:round; stroke-width:4; stroke-opacity:1; fill:none" points="220.66,486.028 230.109,486.028 "/>
<polyline clip-path="url(#clip300)" style="stroke:#000000; stroke-linecap:round; stroke-linejoin:round; stroke-width:4; stroke-opacity:1; fill:none" points="220.66,404.887 230.109,404.887 "/>
<polyline clip-path="url(#clip300)" style="stroke:#000000; stroke-linecap:round; stroke-linejoin:round; stroke-width:4; stroke-opacity:1; fill:none" points="220.66,323.746 230.109,323.746 "/>
<polyline clip-path="url(#clip300)" style="stroke:#000000; stroke-linecap:round; stroke-linejoin:round; stroke-width:4; stroke-opacity:1; fill:none" points="220.66,242.604 230.109,242.604 "/>
<polyline clip-path="url(#clip300)" style="stroke:#000000; stroke-linecap:round; stroke-linejoin:round; stroke-width:4; stroke-opacity:1; fill:none" points="220.66,80.3216 230.109,80.3216 "/>
<polyline clip-path="url(#clip300)" style="stroke:#000000; stroke-linecap:round; stroke-linejoin:round; stroke-width:4; stroke-opacity:1; fill:none" points="2432.76,1297.44 2423.31,1297.44 "/>
<polyline clip-path="url(#clip300)" style="stroke:#000000; stroke-linecap:round; stroke-linejoin:round; stroke-width:4; stroke-opacity:1; fill:none" points="2432.76,1216.3 2423.31,1216.3 "/>
<polyline clip-path="url(#clip300)" style="stroke:#000000; stroke-linecap:round; stroke-linejoin:round; stroke-width:4; stroke-opacity:1; fill:none" points="2432.76,1135.16 2423.31,1135.16 "/>
<polyline clip-path="url(#clip300)" style="stroke:#000000; stroke-linecap:round; stroke-linejoin:round; stroke-width:4; stroke-opacity:1; fill:none" points="2432.76,1054.02 2423.31,1054.02 "/>
<polyline clip-path="url(#clip300)" style="stroke:#000000; stroke-linecap:round; stroke-linejoin:round; stroke-width:4; stroke-opacity:1; fill:none" points="2432.76,891.735 2423.31,891.735 "/>
<polyline clip-path="url(#clip300)" style="stroke:#000000; stroke-linecap:round; stroke-linejoin:round; stroke-width:4; stroke-opacity:1; fill:none" points="2432.76,810.594 2423.31,810.594 "/>
<polyline clip-path="url(#clip300)" style="stroke:#000000; stroke-linecap:round; stroke-linejoin:round; stroke-width:4; stroke-opacity:1; fill:none" points="2432.76,729.453 2423.31,729.453 "/>
<polyline clip-path="url(#clip300)" style="stroke:#000000; stroke-linecap:round; stroke-linejoin:round; stroke-width:4; stroke-opacity:1; fill:none" points="2432.76,648.311 2423.31,648.311 "/>
<polyline clip-path="url(#clip300)" style="stroke:#000000; stroke-linecap:round; stroke-linejoin:round; stroke-width:4; stroke-opacity:1; fill:none" points="2432.76,486.028 2423.31,486.028 "/>
<polyline clip-path="url(#clip300)" style="stroke:#000000; stroke-linecap:round; stroke-linejoin:round; stroke-width:4; stroke-opacity:1; fill:none" points="2432.76,404.887 2423.31,404.887 "/>
<polyline clip-path="url(#clip300)" style="stroke:#000000; stroke-linecap:round; stroke-linejoin:round; stroke-width:4; stroke-opacity:1; fill:none" points="2432.76,323.746 2423.31,323.746 "/>
<polyline clip-path="url(#clip300)" style="stroke:#000000; stroke-linecap:round; stroke-linejoin:round; stroke-width:4; stroke-opacity:1; fill:none" points="2432.76,242.604 2423.31,242.604 "/>
<polyline clip-path="url(#clip300)" style="stroke:#000000; stroke-linecap:round; stroke-linejoin:round; stroke-width:4; stroke-opacity:1; fill:none" points="2432.76,80.3216 2423.31,80.3216 "/>
<path clip-path="url(#clip300)" d="M171.516 1364.38 Q167.905 1364.38 166.076 1367.95 Q164.27 1371.49 164.27 1378.62 Q164.27 1385.72 166.076 1389.29 Q167.905 1392.83 171.516 1392.83 Q175.15 1392.83 176.956 1389.29 Q178.784 1385.72 178.784 1378.62 Q178.784 1371.49 176.956 1367.95 Q175.15 1364.38 171.516 1364.38 M171.516 1360.68 Q177.326 1360.68 180.381 1365.28 Q183.46 1369.87 183.46 1378.62 Q183.46 1387.35 180.381 1391.95 Q177.326 1396.53 171.516 1396.53 Q165.706 1396.53 162.627 1391.95 Q159.571 1387.35 159.571 1378.62 Q159.571 1369.87 162.627 1365.28 Q165.706 1360.68 171.516 1360.68 Z" fill="#000000" fill-rule="nonzero" fill-opacity="1" /><path clip-path="url(#clip300)" d="M163.553 986.221 L171.192 986.221 L171.192 959.856 L162.882 961.523 L162.882 957.263 L171.145 955.597 L175.821 955.597 L175.821 986.221 L183.46 986.221 L183.46 990.157 L163.553 990.157 L163.553 986.221 Z" fill="#000000" fill-rule="nonzero" fill-opacity="1" /><path clip-path="url(#clip300)" d="M167.141 580.515 L183.46 580.515 L183.46 584.45 L161.516 584.45 L161.516 580.515 Q164.178 577.76 168.761 573.13 Q173.368 568.478 174.548 567.135 Q176.793 564.612 177.673 562.876 Q178.576 561.117 178.576 559.427 Q178.576 556.672 176.631 554.936 Q174.71 553.2 171.608 553.2 Q169.409 553.2 166.956 553.964 Q164.525 554.728 161.747 556.279 L161.747 551.556 Q164.571 550.422 167.025 549.844 Q169.479 549.265 171.516 549.265 Q176.886 549.265 180.08 551.95 Q183.275 554.635 183.275 559.126 Q183.275 561.256 182.465 563.177 Q181.678 565.075 179.571 567.668 Q178.993 568.339 175.891 571.556 Q172.789 574.751 167.141 580.515 Z" fill="#000000" fill-rule="nonzero" fill-opacity="1" /><path clip-path="url(#clip300)" d="M176.331 160.109 Q179.687 160.826 181.562 163.095 Q183.46 165.363 183.46 168.697 Q183.46 173.812 179.942 176.613 Q176.423 179.414 169.942 179.414 Q167.766 179.414 165.451 178.974 Q163.159 178.558 160.706 177.701 L160.706 173.187 Q162.65 174.322 164.965 174.9 Q167.28 175.479 169.803 175.479 Q174.201 175.479 176.493 173.743 Q178.807 172.007 178.807 168.697 Q178.807 165.641 176.655 163.928 Q174.525 162.192 170.706 162.192 L166.678 162.192 L166.678 158.35 L170.891 158.35 Q174.34 158.35 176.168 156.984 Q177.997 155.595 177.997 153.002 Q177.997 150.34 176.099 148.928 Q174.224 147.493 170.706 147.493 Q168.784 147.493 166.585 147.91 Q164.386 148.327 161.747 149.206 L161.747 145.039 Q164.409 144.299 166.724 143.928 Q169.062 143.558 171.122 143.558 Q176.446 143.558 179.548 145.989 Q182.65 148.396 182.65 152.516 Q182.65 155.387 181.006 157.377 Q179.363 159.345 176.331 160.109 Z" fill="#000000" fill-rule="nonzero" fill-opacity="1" /><path clip-path="url(#clip300)" d="M86.5993 698.024 L108.115 698.024 L108.115 703.88 L86.7902 703.88 Q81.7295 703.88 79.215 705.854 Q76.7006 707.827 76.7006 711.774 Q76.7006 716.516 79.7243 719.253 Q82.748 721.991 87.9679 721.991 L108.115 721.991 L108.115 727.879 L72.4674 727.879 L72.4674 721.991 L78.0056 721.991 Q74.7909 719.89 73.1994 717.057 Q71.608 714.193 71.608 710.469 Q71.608 704.326 75.4274 701.175 Q79.215 698.024 86.5993 698.024 Z" fill="#000000" fill-rule="nonzero" fill-opacity="1" /><path clip-path="url(#clip300)" d="M76.5733 672.529 Q76.5733 677.24 80.2654 679.977 Q83.9257 682.714 90.3232 682.714 Q96.7207 682.714 100.413 680.009 Q104.073 677.272 104.073 672.529 Q104.073 667.85 100.381 665.113 Q96.6889 662.376 90.3232 662.376 Q83.9893 662.376 80.2972 665.113 Q76.5733 667.85 76.5733 672.529 M71.608 672.529 Q71.608 664.89 76.5733 660.53 Q81.5385 656.169 90.3232 656.169 Q99.076 656.169 104.073 660.53 Q109.038 664.89 109.038 672.529 Q109.038 680.2 104.073 684.56 Q99.076 688.889 90.3232 688.889 Q81.5385 688.889 76.5733 684.56 Q71.608 680.2 71.608 672.529 Z" fill="#000000" fill-rule="nonzero" fill-opacity="1" /><path clip-path="url(#clip300)" d="M77.9419 625.805 Q77.369 626.792 77.1144 627.969 Q76.8279 629.115 76.8279 630.515 Q76.8279 635.481 80.0744 638.154 Q83.2891 640.796 89.3365 640.796 L108.115 640.796 L108.115 646.684 L72.4674 646.684 L72.4674 640.796 L78.0056 640.796 Q74.759 638.95 73.1994 635.99 Q71.608 633.03 71.608 628.797 Q71.608 628.192 71.7035 627.46 Q71.7672 626.728 71.9263 625.837 L77.9419 625.805 Z" fill="#000000" fill-rule="nonzero" fill-opacity="1" /><path clip-path="url(#clip300)" d="M79.3105 593.053 Q75.3638 590.857 73.4859 587.802 Q71.608 584.746 71.608 580.608 Q71.608 575.038 75.5229 572.015 Q79.406 568.991 86.5993 568.991 L108.115 568.991 L108.115 574.879 L86.7902 574.879 Q81.6658 574.879 79.1832 576.693 Q76.7006 578.508 76.7006 582.232 Q76.7006 586.783 79.7243 589.425 Q82.748 592.067 87.9679 592.067 L108.115 592.067 L108.115 597.955 L86.7902 597.955 Q81.634 597.955 79.1832 599.769 Q76.7006 601.583 76.7006 605.371 Q76.7006 609.859 79.7561 612.501 Q82.7798 615.142 87.9679 615.142 L108.115 615.142 L108.115 621.031 L72.4674 621.031 L72.4674 615.142 L78.0056 615.142 Q74.7272 613.137 73.1676 610.336 Q71.608 607.535 71.608 603.684 Q71.608 599.801 73.5814 597.096 Q75.5548 594.358 79.3105 593.053 Z" fill="#000000" fill-rule="nonzero" fill-opacity="1" /><path clip-path="url(#clip300)" d="M90.1959 541.109 Q90.1959 548.207 91.8191 550.944 Q93.4424 553.681 97.3573 553.681 Q100.477 553.681 102.323 551.644 Q104.137 549.576 104.137 546.043 Q104.137 541.173 100.699 538.245 Q97.23 535.285 91.5009 535.285 L90.1959 535.285 L90.1959 541.109 M87.7769 529.428 L108.115 529.428 L108.115 535.285 L102.704 535.285 Q105.951 537.29 107.511 540.282 Q109.038 543.273 109.038 547.602 Q109.038 553.077 105.983 556.323 Q102.895 559.538 97.7392 559.538 Q91.7237 559.538 88.6681 555.527 Q85.6126 551.485 85.6126 543.496 L85.6126 535.285 L85.0397 535.285 Q80.9974 535.285 78.8013 537.958 Q76.5733 540.6 76.5733 545.406 Q76.5733 548.462 77.3053 551.358 Q78.0374 554.254 79.5015 556.928 L74.0906 556.928 Q72.8493 553.713 72.2446 550.69 Q71.608 547.666 71.608 544.801 Q71.608 537.067 75.6184 533.247 Q79.6288 529.428 87.7769 529.428 Z" fill="#000000" fill-rule="nonzero" fill-opacity="1" /><path clip-path="url(#clip300)" d="M58.5902 517.365 L58.5902 511.509 L108.115 511.509 L108.115 517.365 L58.5902 517.365 Z" fill="#000000" fill-rule="nonzero" fill-opacity="1" /><path clip-path="url(#clip300)" d="M72.4674 499.255 L72.4674 493.398 L108.115 493.398 L108.115 499.255 L72.4674 499.255 M58.5902 499.255 L58.5902 493.398 L66.0062 493.398 L66.0062 499.255 L58.5902 499.255 Z" fill="#000000" fill-rule="nonzero" fill-opacity="1" /><path clip-path="url(#clip300)" d="M72.4674 483.69 L72.4674 455.872 L77.8146 455.872 L103.437 477.898 L103.437 455.872 L108.115 455.872 L108.115 484.486 L102.768 484.486 L77.1462 462.461 L77.1462 483.69 L72.4674 483.69 Z" fill="#000000" fill-rule="nonzero" fill-opacity="1" /><path clip-path="url(#clip300)" d="M88.8273 416.437 L91.6918 416.437 L91.6918 443.364 Q97.7392 442.982 100.922 439.735 Q104.073 436.457 104.073 430.632 Q104.073 427.258 103.246 424.107 Q102.418 420.925 100.763 417.805 L106.301 417.805 Q107.638 420.956 108.338 424.267 Q109.038 427.577 109.038 430.982 Q109.038 439.512 104.073 444.51 Q99.1079 449.475 90.6415 449.475 Q81.8886 449.475 76.7642 444.764 Q71.608 440.022 71.608 432.001 Q71.608 424.808 76.255 420.638 Q80.8701 416.437 88.8273 416.437 M87.1085 422.293 Q82.3024 422.357 79.4378 424.999 Q76.5733 427.609 76.5733 431.937 Q76.5733 436.839 79.3424 439.799 Q82.1114 442.727 87.1403 443.173 L87.1085 422.293 Z" fill="#000000" fill-rule="nonzero" fill-opacity="1" /><path clip-path="url(#clip300)" d="M77.8782 383.367 L58.5902 383.367 L58.5902 377.51 L108.115 377.51 L108.115 383.367 L102.768 383.367 Q105.951 385.213 107.511 388.046 Q109.038 390.847 109.038 394.793 Q109.038 401.255 103.882 405.329 Q98.7259 409.371 90.3232 409.371 Q81.9205 409.371 76.7642 405.329 Q71.608 401.255 71.608 394.793 Q71.608 390.847 73.1676 388.046 Q74.6954 385.213 77.8782 383.367 M90.3232 403.323 Q96.7844 403.323 100.477 400.682 Q104.137 398.008 104.137 393.361 Q104.137 388.714 100.477 386.041 Q96.7844 383.367 90.3232 383.367 Q83.862 383.367 80.2017 386.041 Q76.5096 388.714 76.5096 393.361 Q76.5096 398.008 80.2017 400.682 Q83.862 403.323 90.3232 403.323 Z" fill="#000000" fill-rule="nonzero" fill-opacity="1" /><path clip-path="url(#clip300)" d="M77.8782 321.269 L58.5902 321.269 L58.5902 315.413 L108.115 315.413 L108.115 321.269 L102.768 321.269 Q105.951 323.115 107.511 325.948 Q109.038 328.749 109.038 332.696 Q109.038 339.157 103.882 343.231 Q98.7259 347.273 90.3232 347.273 Q81.9205 347.273 76.7642 343.231 Q71.608 339.157 71.608 332.696 Q71.608 328.749 73.1676 325.948 Q74.6954 323.115 77.8782 321.269 M90.3232 341.226 Q96.7844 341.226 100.477 338.584 Q104.137 335.911 104.137 331.264 Q104.137 326.617 100.477 323.943 Q96.7844 321.269 90.3232 321.269 Q83.862 321.269 80.2017 323.943 Q76.5096 326.617 76.5096 331.264 Q76.5096 335.911 80.2017 338.584 Q83.862 341.226 90.3232 341.226 Z" fill="#000000" fill-rule="nonzero" fill-opacity="1" /><path clip-path="url(#clip300)" d="M88.8273 272.858 L91.6918 272.858 L91.6918 299.785 Q97.7392 299.403 100.922 296.157 Q104.073 292.878 104.073 287.054 Q104.073 283.68 103.246 280.529 Q102.418 277.346 100.763 274.227 L106.301 274.227 Q107.638 277.378 108.338 280.688 Q109.038 283.998 109.038 287.404 Q109.038 295.934 104.073 300.931 Q99.1079 305.896 90.6415 305.896 Q81.8886 305.896 76.7642 301.186 Q71.608 296.443 71.608 288.422 Q71.608 281.229 76.255 277.06 Q80.8701 272.858 88.8273 272.858 M87.1085 278.715 Q82.3024 278.778 79.4378 281.42 Q76.5733 284.03 76.5733 288.359 Q76.5733 293.26 79.3424 296.22 Q82.1114 299.149 87.1403 299.594 L87.1085 278.715 Z" fill="#000000" fill-rule="nonzero" fill-opacity="1" /><path clip-path="url(#clip300)" d="M86.5993 233.614 L108.115 233.614 L108.115 239.47 L86.7902 239.47 Q81.7295 239.47 79.215 241.443 Q76.7006 243.417 76.7006 247.364 Q76.7006 252.106 79.7243 254.843 Q82.748 257.581 87.9679 257.581 L108.115 257.581 L108.115 263.469 L72.4674 263.469 L72.4674 257.581 L78.0056 257.581 Q74.7909 255.48 73.1994 252.647 Q71.608 249.783 71.608 246.059 Q71.608 239.916 75.4274 236.765 Q79.215 233.614 86.5993 233.614 Z" fill="#000000" fill-rule="nonzero" fill-opacity="1" /><path clip-path="url(#clip300)" d="M73.5177 199.207 L79.0559 199.207 Q77.7828 201.69 77.1462 204.363 Q76.5096 207.037 76.5096 209.901 Q76.5096 214.262 77.8464 216.458 Q79.1832 218.622 81.8568 218.622 Q83.8938 218.622 85.0715 217.063 Q86.2173 215.503 87.2677 210.793 L87.7133 208.787 Q89.0501 202.549 91.5009 199.939 Q93.9198 197.297 98.2803 197.297 Q103.246 197.297 106.142 201.244 Q109.038 205.159 109.038 212.034 Q109.038 214.898 108.465 218.018 Q107.924 221.105 106.81 224.543 L100.763 224.543 Q102.45 221.296 103.309 218.145 Q104.137 214.994 104.137 211.907 Q104.137 207.769 102.736 205.541 Q101.304 203.313 98.7259 203.313 Q96.3388 203.313 95.0657 204.936 Q93.7925 206.528 92.6149 211.97 L92.1374 214.007 Q90.9916 219.45 88.6363 221.869 Q86.2491 224.288 82.1114 224.288 Q77.0825 224.288 74.3453 220.723 Q71.608 217.158 71.608 210.602 Q71.608 207.355 72.0854 204.491 Q72.5629 201.626 73.5177 199.207 Z" fill="#000000" fill-rule="nonzero" fill-opacity="1" /><path clip-path="url(#clip300)" d="M72.4674 187.972 L72.4674 182.115 L108.115 182.115 L108.115 187.972 L72.4674 187.972 M58.5902 187.972 L58.5902 182.115 L66.0062 182.115 L66.0062 187.972 L58.5902 187.972 Z" fill="#000000" fill-rule="nonzero" fill-opacity="1" /><path clip-path="url(#clip300)" d="M62.3459 164.068 L72.4674 164.068 L72.4674 152.005 L77.0189 152.005 L77.0189 164.068 L96.3706 164.068 Q100.731 164.068 101.972 162.891 Q103.214 161.681 103.214 158.021 L103.214 152.005 L108.115 152.005 L108.115 158.021 Q108.115 164.8 105.601 167.378 Q103.055 169.957 96.3706 169.957 L77.0189 169.957 L77.0189 174.253 L72.4674 174.253 L72.4674 169.957 L62.3459 169.957 L62.3459 164.068 Z" fill="#000000" fill-rule="nonzero" fill-opacity="1" /><path clip-path="url(#clip300)" d="M111.426 129.471 Q117.791 131.953 119.733 134.309 Q121.674 136.664 121.674 140.611 L121.674 145.289 L116.773 145.289 L116.773 141.852 Q116.773 139.433 115.627 138.096 Q114.481 136.759 110.216 135.136 L107.542 134.086 L72.4674 148.504 L72.4674 142.298 L100.349 131.158 L72.4674 120.018 L72.4674 113.811 L111.426 129.471 Z" fill="#000000" fill-rule="nonzero" fill-opacity="1" /><polyline clip-path="url(#clip301)" style="stroke:#009e73; stroke-linecap:round; stroke-linejoin:round; stroke-width:8; stroke-opacity:1; fill:none" points="220.66,1378.58 220.66,1378.58 292.018,1378.58 292.018,1162.71 363.376,1162.71 363.376,904.59 434.734,904.59 434.734,485.405 506.092,485.405 506.092,520.025 577.45,520.025 577.45,466.236 648.808,466.236 648.808,359.774 720.166,359.774 720.166,436.727 791.524,436.727 791.524,290.395 862.881,290.395 862.881,111.556 934.239,111.556 934.239,238.707 1005.6,238.707 1005.6,47.2441 1076.96,47.2441 1076.96,216.301 1148.31,216.301 1148.31,360.558 1219.67,360.558 1219.67,464.32 1291.03,464.32 1291.03,226.092 1362.39,226.092 1362.39,422.878 1433.74,422.878 1433.74,705.118 1505.1,705.118 1505.1,706.589 1576.46,706.589 1576.46,784.582 1647.82,784.582 1647.82,765.982 1719.18,765.982 1719.18,906.614 1790.53,906.614 1790.53,1020.01 1861.89,1020.01 1861.89,1079.13 1933.25,1079.13 1933.25,1265.71 2004.61,1265.71 2004.61,1208.47 2075.97,1208.47 2075.97,1360.91 2147.32,1360.91 2147.32,1358.8 2218.68,1358.8 2218.68,1376.52 2290.04,1376.52 2290.04,1378.04 2361.4,1378.04 2361.4,1378.43 2432.76,1378.43 2432.76,1378.58 "/>
<polyline clip-path="url(#clip301)" style="stroke:#e69f00; stroke-linecap:round; stroke-linejoin:round; stroke-width:8; stroke-opacity:1; fill:none" points="220.66,1378.58 220.66,1378.58 292.018,1378.58 292.018,930.521 363.376,930.521 363.376,927.735 434.734,927.735 434.734,464.04 506.092,464.04 506.092,336.579 577.45,336.579 577.45,484.281 648.808,484.281 648.808,321.033 720.166,321.033 720.166,379.806 791.524,379.806 791.524,314.275 862.881,314.275 862.881,132.592 934.239,132.592 934.239,283.326 1005.6,283.326 1005.6,214.8 1076.96,214.8 1076.96,267.124 1148.31,267.124 1148.31,363.112 1219.67,363.112 1219.67,536.174 1291.03,536.174 1291.03,444.875 1362.39,444.875 1362.39,780.997 1433.74,780.997 1433.74,795.738 1505.1,795.738 1505.1,669.759 1576.46,669.759 1576.46,813.397 1647.82,813.397 1647.82,791.898 1719.18,791.898 1719.18,910.037 1790.53,910.037 1790.53,763.59 1861.89,763.59 1861.89,1022.91 1933.25,1022.91 1933.25,1187.04 2004.61,1187.04 2004.61,1078.16 2075.97,1078.16 2075.97,1344.29 2147.32,1344.29 2147.32,1321.11 2218.68,1321.11 2218.68,1373.84 2290.04,1373.84 2290.04,1377.18 2361.4,1377.18 2361.4,1378.18 2432.76,1378.18 2432.76,1378.58 "/>
<path clip-path="url(#clip300)" d="M1551.25 266.582 L2359.02 266.582 L2359.02 91.6221 L1551.25 91.6221  Z" fill="#ffffff" fill-rule="evenodd" fill-opacity="1"/>
<polyline clip-path="url(#clip300)" style="stroke:#000000; stroke-linecap:round; stroke-linejoin:round; stroke-width:4; stroke-opacity:0; fill:none" points="1551.25,266.582 2359.02,266.582 2359.02,91.6221 1551.25,91.6221 1551.25,266.582 "/>
<polyline clip-path="url(#clip300)" style="stroke:#009e73; stroke-linecap:round; stroke-linejoin:round; stroke-width:9; stroke-opacity:1; fill:none" points="1575.83,149.942 1723.3,149.942 "/>
<path clip-path="url(#clip300)" d="M1768.61 141.075 L1768.61 145.606 Q1766.58 144.564 1764.39 144.044 Q1762.2 143.523 1759.86 143.523 Q1756.29 143.523 1754.5 144.617 Q1752.72 145.71 1752.72 147.898 Q1752.72 149.564 1754 150.528 Q1755.28 151.466 1759.13 152.325 L1760.77 152.689 Q1765.88 153.783 1768.01 155.788 Q1770.17 157.768 1770.17 161.335 Q1770.17 165.398 1766.94 167.767 Q1763.74 170.137 1758.12 170.137 Q1755.77 170.137 1753.22 169.669 Q1750.69 169.226 1747.88 168.314 L1747.88 163.366 Q1750.54 164.747 1753.12 165.45 Q1755.69 166.127 1758.22 166.127 Q1761.61 166.127 1763.43 164.981 Q1765.25 163.809 1765.25 161.7 Q1765.25 159.747 1763.92 158.705 Q1762.62 157.663 1758.17 156.7 L1756.5 156.309 Q1752.05 155.372 1750.07 153.445 Q1748.09 151.492 1748.09 148.106 Q1748.09 143.992 1751.01 141.752 Q1753.92 139.512 1759.29 139.512 Q1761.94 139.512 1764.29 139.903 Q1766.63 140.294 1768.61 141.075 Z" fill="#000000" fill-rule="nonzero" fill-opacity="1" /><path clip-path="url(#clip300)" d="M1798.79 141.335 L1798.79 145.814 Q1796.76 144.695 1794.7 144.148 Q1792.67 143.575 1790.59 143.575 Q1785.93 143.575 1783.35 146.544 Q1780.77 149.486 1780.77 154.825 Q1780.77 160.163 1783.35 163.132 Q1785.93 166.075 1790.59 166.075 Q1792.67 166.075 1794.7 165.528 Q1796.76 164.955 1798.79 163.835 L1798.79 168.262 Q1796.79 169.2 1794.63 169.669 Q1792.49 170.137 1790.07 170.137 Q1783.48 170.137 1779.6 165.997 Q1775.72 161.856 1775.72 154.825 Q1775.72 147.689 1779.63 143.601 Q1783.56 139.512 1790.38 139.512 Q1792.59 139.512 1794.7 139.981 Q1796.81 140.424 1798.79 141.335 Z" fill="#000000" fill-rule="nonzero" fill-opacity="1" /><path clip-path="url(#clip300)" d="M1820.38 154.721 Q1814.57 154.721 1812.33 156.049 Q1810.09 157.377 1810.09 160.58 Q1810.09 163.132 1811.76 164.643 Q1813.45 166.127 1816.34 166.127 Q1820.33 166.127 1822.72 163.314 Q1825.15 160.476 1825.15 155.788 L1825.15 154.721 L1820.38 154.721 M1829.94 152.742 L1829.94 169.382 L1825.15 169.382 L1825.15 164.955 Q1823.51 167.611 1821.06 168.887 Q1818.61 170.137 1815.07 170.137 Q1810.59 170.137 1807.93 167.637 Q1805.3 165.111 1805.3 160.893 Q1805.3 155.971 1808.58 153.471 Q1811.89 150.971 1818.43 150.971 L1825.15 150.971 L1825.15 150.502 Q1825.15 147.195 1822.96 145.398 Q1820.8 143.575 1816.87 143.575 Q1814.37 143.575 1812 144.174 Q1809.63 144.773 1807.44 145.971 L1807.44 141.544 Q1810.07 140.528 1812.54 140.033 Q1815.02 139.512 1817.36 139.512 Q1823.69 139.512 1826.81 142.794 Q1829.94 146.075 1829.94 152.742 Z" fill="#000000" fill-rule="nonzero" fill-opacity="1" /><path clip-path="url(#clip300)" d="M1839.81 128.861 L1844.6 128.861 L1844.6 169.382 L1839.81 169.382 L1839.81 128.861 Z" fill="#000000" fill-rule="nonzero" fill-opacity="1" /><path clip-path="url(#clip300)" d="M1867.88 154.721 Q1862.07 154.721 1859.83 156.049 Q1857.59 157.377 1857.59 160.58 Q1857.59 163.132 1859.26 164.643 Q1860.95 166.127 1863.84 166.127 Q1867.83 166.127 1870.22 163.314 Q1872.65 160.476 1872.65 155.788 L1872.65 154.721 L1867.88 154.721 M1877.44 152.742 L1877.44 169.382 L1872.65 169.382 L1872.65 164.955 Q1871.01 167.611 1868.56 168.887 Q1866.11 170.137 1862.57 170.137 Q1858.09 170.137 1855.43 167.637 Q1852.8 165.111 1852.8 160.893 Q1852.8 155.971 1856.08 153.471 Q1859.39 150.971 1865.93 150.971 L1872.65 150.971 L1872.65 150.502 Q1872.65 147.195 1870.46 145.398 Q1868.3 143.575 1864.36 143.575 Q1861.86 143.575 1859.5 144.174 Q1857.13 144.773 1854.94 145.971 L1854.94 141.544 Q1857.57 140.528 1860.04 140.033 Q1862.52 139.512 1864.86 139.512 Q1871.19 139.512 1874.31 142.794 Q1877.44 146.075 1877.44 152.742 Z" fill="#000000" fill-rule="nonzero" fill-opacity="1" /><path clip-path="url(#clip300)" d="M1904.21 144.695 Q1903.4 144.226 1902.44 144.018 Q1901.5 143.783 1900.35 143.783 Q1896.29 143.783 1894.1 146.439 Q1891.94 149.07 1891.94 154.018 L1891.94 169.382 L1887.13 169.382 L1887.13 140.216 L1891.94 140.216 L1891.94 144.747 Q1893.45 142.091 1895.88 140.815 Q1898.3 139.512 1901.76 139.512 Q1902.26 139.512 1902.85 139.591 Q1903.45 139.643 1904.18 139.773 L1904.21 144.695 Z" fill="#000000" fill-rule="nonzero" fill-opacity="1" /><path clip-path="url(#clip300)" d="M1938.11 133.966 Q1934.05 133.966 1931.99 137.976 Q1929.96 141.96 1929.96 149.981 Q1929.96 157.976 1931.99 161.986 Q1934.05 165.971 1938.11 165.971 Q1942.2 165.971 1944.23 161.986 Q1946.29 157.976 1946.29 149.981 Q1946.29 141.96 1944.23 137.976 Q1942.2 133.966 1938.11 133.966 M1938.11 129.799 Q1944.65 129.799 1948.09 134.981 Q1951.55 140.137 1951.55 149.981 Q1951.55 159.799 1948.09 164.981 Q1944.65 170.137 1938.11 170.137 Q1931.58 170.137 1928.11 164.981 Q1924.68 159.799 1924.68 149.981 Q1924.68 140.137 1928.11 134.981 Q1931.58 129.799 1938.11 129.799 Z" fill="#000000" fill-rule="nonzero" fill-opacity="1" /><path clip-path="url(#clip300)" d="M1979.62 135.945 L1979.62 150.45 L1994.13 150.45 L1994.13 154.877 L1979.62 154.877 L1979.62 169.382 L1975.25 169.382 L1975.25 154.877 L1960.74 154.877 L1960.74 150.45 L1975.25 150.45 L1975.25 135.945 L1979.62 135.945 Z" fill="#000000" fill-rule="nonzero" fill-opacity="1" /><path clip-path="url(#clip300)" d="M2033.27 128.914 Q2029.78 134.903 2028.09 140.762 Q2026.4 146.622 2026.4 152.637 Q2026.4 158.653 2028.09 164.564 Q2029.81 170.45 2033.27 176.413 L2029.1 176.413 Q2025.2 170.294 2023.24 164.382 Q2021.32 158.471 2021.32 152.637 Q2021.32 146.83 2023.24 140.945 Q2025.17 135.059 2029.1 128.914 L2033.27 128.914 Z" fill="#000000" fill-rule="nonzero" fill-opacity="1" /><path clip-path="url(#clip300)" d="M2066.08 131.778 L2066.08 136.908 Q2063.09 135.476 2060.43 134.773 Q2057.78 134.07 2055.3 134.07 Q2051 134.07 2048.66 135.736 Q2046.34 137.403 2046.34 140.476 Q2046.34 143.054 2047.88 144.382 Q2049.44 145.684 2053.76 146.492 L2056.94 147.143 Q2062.83 148.262 2065.61 151.101 Q2068.43 153.913 2068.43 158.653 Q2068.43 164.304 2064.62 167.221 Q2060.85 170.137 2053.53 170.137 Q2050.77 170.137 2047.65 169.512 Q2044.55 168.887 2041.21 167.663 L2041.21 162.247 Q2044.42 164.044 2047.49 164.955 Q2050.56 165.866 2053.53 165.866 Q2058.04 165.866 2060.48 164.096 Q2062.93 162.325 2062.93 159.044 Q2062.93 156.179 2061.16 154.564 Q2059.42 152.95 2055.41 152.143 L2052.2 151.518 Q2046.32 150.346 2043.69 147.846 Q2041.06 145.346 2041.06 140.893 Q2041.06 135.736 2044.68 132.768 Q2048.32 129.799 2054.7 129.799 Q2057.44 129.799 2060.28 130.294 Q2063.11 130.789 2066.08 131.778 Z" fill="#000000" fill-rule="nonzero" fill-opacity="1" /><path clip-path="url(#clip300)" d="M2074 152.637 L2088.04 152.637 L2088.04 156.908 L2074 156.908 L2074 152.637 Z" fill="#000000" fill-rule="nonzero" fill-opacity="1" /><path clip-path="url(#clip300)" d="M2092.88 140.216 L2097.67 140.216 L2103.66 162.976 L2109.62 140.216 L2115.28 140.216 L2121.26 162.976 L2127.23 140.216 L2132.02 140.216 L2124.39 169.382 L2118.74 169.382 L2112.46 145.476 L2106.16 169.382 L2100.51 169.382 L2092.88 140.216 Z" fill="#000000" fill-rule="nonzero" fill-opacity="1" /><path clip-path="url(#clip300)" d="M2152.54 154.721 Q2146.73 154.721 2144.49 156.049 Q2142.25 157.377 2142.25 160.58 Q2142.25 163.132 2143.92 164.643 Q2145.61 166.127 2148.5 166.127 Q2152.49 166.127 2154.88 163.314 Q2157.31 160.476 2157.31 155.788 L2157.31 154.721 L2152.54 154.721 M2162.1 152.742 L2162.1 169.382 L2157.31 169.382 L2157.31 164.955 Q2155.67 167.611 2153.22 168.887 Q2150.77 170.137 2147.23 170.137 Q2142.75 170.137 2140.09 167.637 Q2137.46 165.111 2137.46 160.893 Q2137.46 155.971 2140.74 153.471 Q2144.05 150.971 2150.59 150.971 L2157.31 150.971 L2157.31 150.502 Q2157.31 147.195 2155.12 145.398 Q2152.96 143.575 2149.02 143.575 Q2146.52 143.575 2144.16 144.174 Q2141.79 144.773 2139.6 145.971 L2139.6 141.544 Q2142.23 140.528 2144.7 140.033 Q2147.18 139.512 2149.52 139.512 Q2155.85 139.512 2158.97 142.794 Q2162.1 146.075 2162.1 152.742 Z" fill="#000000" fill-rule="nonzero" fill-opacity="1" /><path clip-path="url(#clip300)" d="M2168.53 140.216 L2173.61 140.216 L2182.72 164.695 L2191.84 140.216 L2196.92 140.216 L2185.98 169.382 L2179.47 169.382 L2168.53 140.216 Z" fill="#000000" fill-rule="nonzero" fill-opacity="1" /><path clip-path="url(#clip300)" d="M2228.48 153.601 L2228.48 155.945 L2206.45 155.945 Q2206.76 160.893 2209.42 163.497 Q2212.1 166.075 2216.86 166.075 Q2219.62 166.075 2222.2 165.398 Q2224.81 164.721 2227.36 163.366 L2227.36 167.898 Q2224.78 168.991 2222.07 169.564 Q2219.36 170.137 2216.58 170.137 Q2209.6 170.137 2205.51 166.075 Q2201.45 162.012 2201.45 155.085 Q2201.45 147.924 2205.3 143.731 Q2209.18 139.512 2215.74 139.512 Q2221.63 139.512 2225.04 143.315 Q2228.48 147.091 2228.48 153.601 M2223.69 152.195 Q2223.63 148.262 2221.47 145.919 Q2219.34 143.575 2215.8 143.575 Q2211.78 143.575 2209.36 145.841 Q2206.97 148.106 2206.6 152.221 L2223.69 152.195 Z" fill="#000000" fill-rule="nonzero" fill-opacity="1" /><path clip-path="url(#clip300)" d="M2253.5 130.502 L2258.76 130.502 L2258.76 146.934 L2276.21 130.502 L2282.98 130.502 L2263.69 148.627 L2284.36 169.382 L2277.44 169.382 L2258.76 150.658 L2258.76 169.382 L2253.5 169.382 L2253.5 130.502 Z" fill="#000000" fill-rule="nonzero" fill-opacity="1" /><path clip-path="url(#clip300)" d="M2288.48 130.502 L2293.74 130.502 L2293.74 146.934 L2311.19 130.502 L2317.96 130.502 L2298.66 148.627 L2319.34 169.382 L2312.41 169.382 L2293.74 150.658 L2293.74 169.382 L2288.48 169.382 L2288.48 130.502 Z" fill="#000000" fill-rule="nonzero" fill-opacity="1" /><path clip-path="url(#clip300)" d="M2322.49 128.914 L2326.65 128.914 Q2330.56 135.059 2332.49 140.945 Q2334.44 146.83 2334.44 152.637 Q2334.44 158.471 2332.49 164.382 Q2330.56 170.294 2326.65 176.413 L2322.49 176.413 Q2325.95 170.45 2327.64 164.564 Q2329.36 158.653 2329.36 152.637 Q2329.36 146.622 2327.64 140.762 Q2325.95 134.903 2322.49 128.914 Z" fill="#000000" fill-rule="nonzero" fill-opacity="1" /><polyline clip-path="url(#clip300)" style="stroke:#e69f00; stroke-linecap:round; stroke-linejoin:round; stroke-width:9; stroke-opacity:1; fill:none" points="1575.83,208.262 1723.3,208.262 "/>
<path clip-path="url(#clip300)" d="M1747.88 198.536 L1752.96 198.536 L1762.07 223.015 L1771.19 198.536 L1776.27 198.536 L1765.33 227.702 L1758.82 227.702 L1747.88 198.536 Z" fill="#000000" fill-rule="nonzero" fill-opacity="1" /><path clip-path="url(#clip300)" d="M1807.83 211.921 L1807.83 214.265 L1785.8 214.265 Q1786.11 219.213 1788.77 221.817 Q1791.45 224.395 1796.21 224.395 Q1798.97 224.395 1801.55 223.718 Q1804.16 223.041 1806.71 221.686 L1806.71 226.218 Q1804.13 227.311 1801.42 227.884 Q1798.71 228.457 1795.93 228.457 Q1788.95 228.457 1784.86 224.395 Q1780.8 220.332 1780.8 213.405 Q1780.8 206.244 1784.65 202.051 Q1788.53 197.832 1795.09 197.832 Q1800.98 197.832 1804.39 201.635 Q1807.83 205.411 1807.83 211.921 M1803.04 210.515 Q1802.99 206.582 1800.82 204.239 Q1798.69 201.895 1795.15 201.895 Q1791.14 201.895 1788.71 204.161 Q1786.32 206.426 1785.95 210.541 L1803.04 210.515 Z" fill="#000000" fill-rule="nonzero" fill-opacity="1" /><path clip-path="url(#clip300)" d="M1836.68 199.655 L1836.68 204.134 Q1834.65 203.015 1832.59 202.468 Q1830.56 201.895 1828.48 201.895 Q1823.82 201.895 1821.24 204.864 Q1818.66 207.806 1818.66 213.145 Q1818.66 218.483 1821.24 221.452 Q1823.82 224.395 1828.48 224.395 Q1830.56 224.395 1832.59 223.848 Q1834.65 223.275 1836.68 222.155 L1836.68 226.582 Q1834.68 227.52 1832.52 227.989 Q1830.38 228.457 1827.96 228.457 Q1821.37 228.457 1817.49 224.317 Q1813.61 220.176 1813.61 213.145 Q1813.61 206.009 1817.52 201.921 Q1821.45 197.832 1828.27 197.832 Q1830.48 197.832 1832.59 198.301 Q1834.7 198.744 1836.68 199.655 Z" fill="#000000" fill-rule="nonzero" fill-opacity="1" /><path clip-path="url(#clip300)" d="M1849.76 190.254 L1849.76 198.536 L1859.63 198.536 L1859.63 202.26 L1849.76 202.26 L1849.76 218.093 Q1849.76 221.66 1850.72 222.676 Q1851.71 223.692 1854.7 223.692 L1859.63 223.692 L1859.63 227.702 L1854.7 227.702 Q1849.16 227.702 1847.05 225.645 Q1844.94 223.561 1844.94 218.093 L1844.94 202.26 L1841.42 202.26 L1841.42 198.536 L1844.94 198.536 L1844.94 190.254 L1849.76 190.254 Z" fill="#000000" fill-rule="nonzero" fill-opacity="1" /><path clip-path="url(#clip300)" d="M1877.23 201.895 Q1873.38 201.895 1871.14 204.916 Q1868.9 207.911 1868.9 213.145 Q1868.9 218.379 1871.11 221.4 Q1873.35 224.395 1877.23 224.395 Q1881.06 224.395 1883.3 221.374 Q1885.54 218.353 1885.54 213.145 Q1885.54 207.963 1883.3 204.942 Q1881.06 201.895 1877.23 201.895 M1877.23 197.832 Q1883.48 197.832 1887.05 201.895 Q1890.61 205.957 1890.61 213.145 Q1890.61 220.306 1887.05 224.395 Q1883.48 228.457 1877.23 228.457 Q1870.95 228.457 1867.39 224.395 Q1863.84 220.306 1863.84 213.145 Q1863.84 205.957 1867.39 201.895 Q1870.95 197.832 1877.23 197.832 Z" fill="#000000" fill-rule="nonzero" fill-opacity="1" /><path clip-path="url(#clip300)" d="M1915.46 203.015 Q1914.65 202.546 1913.69 202.338 Q1912.75 202.103 1911.6 202.103 Q1907.54 202.103 1905.35 204.759 Q1903.19 207.39 1903.19 212.338 L1903.19 227.702 L1898.38 227.702 L1898.38 198.536 L1903.19 198.536 L1903.19 203.067 Q1904.7 200.411 1907.13 199.135 Q1909.55 197.832 1913.01 197.832 Q1913.51 197.832 1914.1 197.911 Q1914.7 197.963 1915.43 198.093 L1915.46 203.015 Z" fill="#000000" fill-rule="nonzero" fill-opacity="1" /><path clip-path="url(#clip300)" d="M1939.03 223.275 L1947.62 223.275 L1947.62 193.614 L1938.27 195.489 L1938.27 190.697 L1947.57 188.822 L1952.83 188.822 L1952.83 223.275 L1961.42 223.275 L1961.42 227.702 L1939.03 227.702 L1939.03 223.275 Z" fill="#000000" fill-rule="nonzero" fill-opacity="1" /><path clip-path="url(#clip300)" d="M1968.95 210.957 L1982.98 210.957 L1982.98 215.228 L1968.95 215.228 L1968.95 210.957 Z" fill="#000000" fill-rule="nonzero" fill-opacity="1" /><path clip-path="url(#clip300)" d="M2019.08 187.234 Q2015.59 193.223 2013.9 199.082 Q2012.2 204.942 2012.2 210.957 Q2012.2 216.973 2013.9 222.884 Q2015.61 228.77 2019.08 234.733 L2014.91 234.733 Q2011 228.614 2009.05 222.702 Q2007.12 216.791 2007.12 210.957 Q2007.12 205.15 2009.05 199.265 Q2010.98 193.379 2014.91 187.234 L2019.08 187.234 Z" fill="#000000" fill-rule="nonzero" fill-opacity="1" /><path clip-path="url(#clip300)" d="M2033.84 193.145 L2033.84 207.754 L2040.46 207.754 Q2044.13 207.754 2046.13 205.853 Q2048.14 203.952 2048.14 200.437 Q2048.14 196.947 2046.13 195.046 Q2044.13 193.145 2040.46 193.145 L2033.84 193.145 M2028.58 188.822 L2040.46 188.822 Q2046.99 188.822 2050.33 191.791 Q2053.69 194.734 2053.69 200.437 Q2053.69 206.192 2050.33 209.134 Q2046.99 212.077 2040.46 212.077 L2033.84 212.077 L2033.84 227.702 L2028.58 227.702 L2028.58 188.822 Z" fill="#000000" fill-rule="nonzero" fill-opacity="1" /><path clip-path="url(#clip300)" d="M2056.94 210.957 L2070.98 210.957 L2070.98 215.228 L2056.94 215.228 L2056.94 210.957 Z" fill="#000000" fill-rule="nonzero" fill-opacity="1" /><path clip-path="url(#clip300)" d="M2075.82 198.536 L2080.61 198.536 L2086.6 221.296 L2092.57 198.536 L2098.22 198.536 L2104.21 221.296 L2110.17 198.536 L2114.96 198.536 L2107.33 227.702 L2101.68 227.702 L2095.41 203.796 L2089.1 227.702 L2083.45 227.702 L2075.82 198.536 Z" fill="#000000" fill-rule="nonzero" fill-opacity="1" /><path clip-path="url(#clip300)" d="M2135.48 213.041 Q2129.68 213.041 2127.44 214.369 Q2125.2 215.697 2125.2 218.9 Q2125.2 221.452 2126.86 222.963 Q2128.56 224.447 2131.45 224.447 Q2135.43 224.447 2137.83 221.634 Q2140.25 218.796 2140.25 214.108 L2140.25 213.041 L2135.48 213.041 M2145.04 211.062 L2145.04 227.702 L2140.25 227.702 L2140.25 223.275 Q2138.61 225.931 2136.16 227.207 Q2133.71 228.457 2130.17 228.457 Q2125.69 228.457 2123.04 225.957 Q2120.41 223.431 2120.41 219.213 Q2120.41 214.291 2123.69 211.791 Q2126.99 209.291 2133.53 209.291 L2140.25 209.291 L2140.25 208.822 Q2140.25 205.515 2138.06 203.718 Q2135.9 201.895 2131.97 201.895 Q2129.47 201.895 2127.1 202.494 Q2124.73 203.093 2122.54 204.291 L2122.54 199.864 Q2125.17 198.848 2127.64 198.353 Q2130.12 197.832 2132.46 197.832 Q2138.79 197.832 2141.92 201.114 Q2145.04 204.395 2145.04 211.062 Z" fill="#000000" fill-rule="nonzero" fill-opacity="1" /><path clip-path="url(#clip300)" d="M2151.47 198.536 L2156.55 198.536 L2165.67 223.015 L2174.78 198.536 L2179.86 198.536 L2168.92 227.702 L2162.41 227.702 L2151.47 198.536 Z" fill="#000000" fill-rule="nonzero" fill-opacity="1" /><path clip-path="url(#clip300)" d="M2211.42 211.921 L2211.42 214.265 L2189.39 214.265 Q2189.7 219.213 2192.36 221.817 Q2195.04 224.395 2199.81 224.395 Q2202.57 224.395 2205.14 223.718 Q2207.75 223.041 2210.3 221.686 L2210.3 226.218 Q2207.72 227.311 2205.01 227.884 Q2202.31 228.457 2199.52 228.457 Q2192.54 228.457 2188.45 224.395 Q2184.39 220.332 2184.39 213.405 Q2184.39 206.244 2188.24 202.051 Q2192.12 197.832 2198.69 197.832 Q2204.57 197.832 2207.98 201.635 Q2211.42 205.411 2211.42 211.921 M2206.63 210.515 Q2206.58 206.582 2204.42 204.239 Q2202.28 201.895 2198.74 201.895 Q2194.73 201.895 2192.31 204.161 Q2189.91 206.426 2189.55 210.541 L2206.63 210.515 Z" fill="#000000" fill-rule="nonzero" fill-opacity="1" /><path clip-path="url(#clip300)" d="M2236.45 188.822 L2241.71 188.822 L2241.71 205.254 L2259.15 188.822 L2265.93 188.822 L2246.63 206.947 L2267.31 227.702 L2260.38 227.702 L2241.71 208.978 L2241.71 227.702 L2236.45 227.702 L2236.45 188.822 Z" fill="#000000" fill-rule="nonzero" fill-opacity="1" /><path clip-path="url(#clip300)" d="M2271.42 188.822 L2276.68 188.822 L2276.68 205.254 L2294.13 188.822 L2300.9 188.822 L2281.6 206.947 L2302.28 227.702 L2295.35 227.702 L2276.68 208.978 L2276.68 227.702 L2271.42 227.702 L2271.42 188.822 Z" fill="#000000" fill-rule="nonzero" fill-opacity="1" /><path clip-path="url(#clip300)" d="M2305.43 187.234 L2309.6 187.234 Q2313.5 193.379 2315.43 199.265 Q2317.38 205.15 2317.38 210.957 Q2317.38 216.791 2315.43 222.702 Q2313.5 228.614 2309.6 234.733 L2305.43 234.733 Q2308.89 228.77 2310.59 222.884 Q2312.31 216.973 2312.31 210.957 Q2312.31 204.942 2310.59 199.082 Q2308.89 193.223 2305.43 187.234 Z" fill="#000000" fill-rule="nonzero" fill-opacity="1" /></svg>
